<?xml version="1.0" encoding="us-ascii" standalone="no"?><svg xmlns="http://www.w3.org/2000/svg" xmlns:xlink="http://www.w3.org/1999/xlink" contentStyleType="text/css" height="275px" preserveAspectRatio="none" style="width:438px;height:275px;background:#FFFFFF;" version="1.1" viewBox="0 0 438 275" width="438px" zoomAndPan="magnify"><defs/><g><!--cluster external--><g id="cluster_external"><rect fill="none" height="192.14" rx="2.5" ry="2.5" style="stroke:#181818;stroke-width:1.0;" width="128" x="304.5" y="68.06"/><text fill="#000000" font-family="sans-serif" font-size="14" font-weight="bold" lengthAdjust="spacing" textLength="58.5" x="339.25" y="85.0259">external</text></g><!--entity ts-graphviz--><g id="elem_ts-graphviz"><rect fill="#F1F1F1" height="39.0679" rx="2.5" ry="2.5" style="stroke:#181818;stroke-width:0.5;" width="96" x="320.5" y="106.06"/><text fill="#000000" font-family="sans-serif" font-size="14" lengthAdjust="spacing" textLength="76" x="330.5" y="131.0259">ts-graphviz</text></g><!--entity tensorflow--><g id="elem_tensorflow"><rect fill="#F1F1F1" height="39.0679" rx="2.5" ry="2.5" style="stroke:#181818;stroke-width:0.5;" width="91" x="323" y="205.13"/><text fill="#000000" font-family="sans-serif" font-size="14" lengthAdjust="spacing" textLength="71" x="333" y="230.0959">tensorflow</text></g><!--entity core--><g id="elem_core"><rect fill="#F1F1F1" height="39.0679" rx="2.5" ry="2.5" style="stroke:#181818;stroke-width:0.5;" width="49" x="110" y="7"/><text fill="#000000" font-family="sans-serif" font-size="14" lengthAdjust="spacing" textLength="29" x="120" y="31.9659">core</text></g><!--entity game--><g id="elem_game"><rect fill="#F1F1F1" height="39.0679" rx="2.5" ry="2.5" style="stroke:#181818;stroke-width:0.5;" width="58" x="146.5" y="106.06"/><text fill="#000000" font-family="sans-serif" font-size="14" lengthAdjust="spacing" textLength="38" x="156.5" y="131.0259">game</text></g><!--entity search--><g id="elem_search"><rect fill="#F1F1F1" height="39.0679" rx="2.5" ry="2.5" style="stroke:#181818;stroke-width:0.5;" width="65" x="7" y="205.13"/><text fill="#000000" font-family="sans-serif" font-size="14" lengthAdjust="spacing" textLength="45" x="17" y="230.0959">search</text></g><!--entity games--><g id="elem_games"><rect fill="#F1F1F1" height="39.0679" rx="2.5" ry="2.5" style="stroke:#181818;stroke-width:0.5;" width="65" x="107" y="205.13"/><text fill="#000000" font-family="sans-serif" font-size="14" lengthAdjust="spacing" textLength="45" x="117" y="230.0959">games</text></g><!--entity interface--><g id="elem_interface"><rect fill="#F1F1F1" height="39.0679" rx="2.5" ry="2.5" style="stroke:#181818;stroke-width:0.5;" width="80" x="207.5" y="205.13"/><text fill="#000000" font-family="sans-serif" font-size="14" lengthAdjust="spacing" textLength="60" x="217.5" y="230.0959">interface</text></g><!--link ts-graphviz to tensorflow--><!--reverse link core to game--><g id="link_core_game"><path d="M152.75,52.1 C152.75,69.36 152.75,88.38 152.75,105.73 " fill="none" id="core-backto-game" style="stroke:#181818;stroke-width:1.0;"/><polygon fill="#181818" points="152.75,46.1,148.75,55.1,152.75,51.1,156.75,55.1,152.75,46.1" style="stroke:#181818;stroke-width:1.0;"/></g><!--reverse link core to games--><g id="link_core_games"><path d="M128.25,52.25 C128.25,90.13 128.25,166.68 128.25,204.73 " fill="none" id="core-backto-games" style="stroke:#181818;stroke-width:1.0;"/><polygon fill="#181818" points="128.25,46.25,124.25,55.25,128.25,51.25,132.25,55.25,128.25,46.25" style="stroke:#181818;stroke-width:1.0;"/></g><!--reverse link game to games--><g id="link_game_games"><path d="M159.25,151.17 C159.25,168.43 159.25,187.45 159.25,204.79 " fill="none" id="game-backto-games" style="stroke:#181818;stroke-width:1.0;"/><polygon fill="#181818" points="159.25,145.17,155.25,154.17,159.25,150.17,163.25,154.17,159.25,145.17" style="stroke:#181818;stroke-width:1.0;"/></g><!--reverse link search to games--><g id="link_search_games"><path d="M78.24,224.2 C89.29,224.2 95.63,224.2 106.68,224.2 " fill="none" id="search-backto-games" style="stroke:#181818;stroke-width:1.0;"/><polygon fill="#181818" points="72.24,224.2,81.24,228.2,77.24,224.2,81.24,220.2,72.24,224.2" style="stroke:#181818;stroke-width:1.0;"/></g><!--reverse link core to search--><g id="link_core_search"><path d="M103.69,26.2 C72.41,26.2 28.67,26.2 28.67,26.2 C28.67,26.2 28.67,154.71 28.67,204.91 " fill="none" id="core-backto-search" style="stroke:#181818;stroke-width:1.0;"/><polygon fill="#181818" points="109.69,26.2,100.69,22.2,104.69,26.2,100.69,30.2,109.69,26.2" style="stroke:#181818;stroke-width:1.0;"/></g><!--reverse link game to search--><g id="link_game_search"><path d="M140.15,125.2 C103.16,125.2 50.33,125.2 50.33,125.2 C50.33,125.2 50.33,176.03 50.33,205.01 " fill="none" id="game-backto-search" style="stroke:#181818;stroke-width:1.0;"/><polygon fill="#181818" points="146.15,125.2,137.15,121.2,141.15,125.2,137.15,129.2,146.15,125.2" style="stroke:#181818;stroke-width:1.0;"/></g><!--reverse link tensorflow to search--><g id="link_tensorflow_search"><path d="M368.5,250.65 C368.5,262.09 368.5,268.2 368.5,268.2 C368.5,268.2 28.67,268.2 28.67,268.2 C28.67,268.2 28.67,256.09 28.67,244.65 " fill="none" id="tensorflow-backto-search" style="stroke:#181818;stroke-width:1.0;"/><polygon fill="#181818" points="368.5,244.65,364.5,253.65,368.5,249.65,372.5,253.65,368.5,244.65" style="stroke:#181818;stroke-width:1.0;"/></g><!--reverse link core to interface--><g id="link_core_interface"><path d="M165.39,26.2 C194.91,26.2 234.17,26.2 234.17,26.2 C234.17,26.2 234.17,154.71 234.17,204.91 " fill="none" id="core-backto-interface" style="stroke:#181818;stroke-width:1.0;"/><polygon fill="#181818" points="159.39,26.2,168.39,30.2,164.39,26.2,168.39,22.2,159.39,26.2" style="stroke:#181818;stroke-width:1.0;"/></g><!--reverse link game to interface--><g id="link_game_interface"><path d="M188.25,151.55 C188.25,180.36 188.25,224.2 188.25,224.2 C188.25,224.2 196.76,224.2 207.32,224.2 " fill="none" id="game-backto-interface" style="stroke:#181818;stroke-width:1.0;"/><polygon fill="#181818" points="188.25,145.55,184.25,154.55,188.25,150.55,192.25,154.55,188.25,145.55" style="stroke:#181818;stroke-width:1.0;"/></g><!--reverse link search to interface--><g id="link_search_interface"><path d="M50.33,250.46 C50.33,256.79 50.33,256.2 50.33,256.2 C50.33,256.2 247.5,256.2 247.5,256.2 C247.5,256.2 247.5,250.79 247.5,244.46 " fill="none" id="search-backto-interface" style="stroke:#181818;stroke-width:1.0;"/><polygon fill="#181818" points="50.33,244.46,46.33,253.46,50.33,249.46,54.33,253.46,50.33,244.46" style="stroke:#181818;stroke-width:1.0;"/></g><!--reverse link ts-graphviz to interface--><g id="link_ts-graphviz_interface"><path d="M314.02,125.2 C285.44,125.2 260.83,125.2 260.83,125.2 C260.83,125.2 260.83,176.03 260.83,205.01 " fill="none" id="ts-graphviz-backto-interface" style="stroke:#181818;stroke-width:1.0;"/><polygon fill="#181818" points="320.02,125.2,311.02,121.2,315.02,125.2,311.02,129.2,320.02,125.2" style="stroke:#181818;stroke-width:1.0;"/></g><!--SRC=[xPJFJiCm3CRlVWgB2-FGgHi3eHuGVmP8OnCJsxWW3g7rseZMgPAqC13lJZe6Iq6y0QVAFt-VxLfMTZ6dfKMhKCiqivX8JR6LYi4yIIw55WN6gYWL4zkPNUM4ZK1mcfCdAKNy95BwMv1B9hig2PMscGBO691UB6aM-HlWjW_kM1EaMfHPBLztMXbBR9HUvkePtg4bm-0-aqb2_13uAjXwOwN92rDH-A4XeUFiHzvuiMGtwbB41D2aCAZAuFYpw1eOd_XWtMW3ccqxj6a6dr_Vs29hvnVPMFr_-nx9h_0Jhejui3t2xqHx-IV42S3_DVnVm_OQfhbWkvYCiIPjt5k1lMu_x0-w-vrvLk4bFMBl07k7qI2CmWEycio3S3yAGsn4Uz2vcexhFXfLQTSdaSPg-LWrRyuUZ4GjyBPYAmkAyAOa7Wsllm1US2sruiBj7qPtawtWS12SIOipqcuYl9l0a9QYogrpn2gHd4Quc5y6Hp1sbrYvIukG6CwLgwjN4PukFW00]--></g></svg>